# xmcd
#
# Track frame offsets:
#	150
#	16740
#	35139
#	51910
#	64262
#	89794
#	99964
#	117385
#	134046
#	145813
#	162168
#	187653
#
# Disc length: 2842 seconds
#
# Revision: 2
# Processed by: cddbd v1.5.2PL0 Copyright (c) Steve Scherf et al.
# Submitted via: audiograbber 1.83.01
#
DISCID=a80b180c
DTITLE=Jessy Lynn Martiens - Not For Sale
DYEAR=2014
DGENRE=Country
TTITLE0=Danger Zone featuring Kenny Logins
TTITLE1=Hear Me Coming Home To You
TTITLE2=Shanking Off The Midnight Blues
TTITLE3=Baby Please Don't Go
TTITLE4=It's Broken Hearts And Auto Parts This Year
TTITLE5=I'll Burn It Down
TTITLE6=Chata Hootchie Koochie Man
TTITLE7=Danger Zone (Mandolin Version)
TTITLE8=East Bound And Down
TTITLE9=I Walked Forty Miles
TTITLE10=Gypsy Woman Tell Me
TTITLE11=I'm Going Straight To Hell
EXTD=
EXTT0=
EXTT1=
EXTT2=
EXTT3=
EXTT4=
EXTT5=
EXTT6=
EXTT7=
EXTT8=
EXTT9=
EXTT10=
EXTT11=
PLAYORDER=
